{
  "accessors": [
    {
      "bufferView": 0,
      "byteOffset": 0,
      "componentType": 5125,
      "normalized": false,
      "count": 93177,
      "type": "SCALAR",
      "max": [
        15544
      ],
      "min": [
        0
      ]
    },
    {
      "bufferView": 1,
      "byteOffset": 0,
      "componentType": 5126,
      "normalized": false,
      "count": 15545,
      "type": "VEC3",
      "max": [
        97.96728515625,
        1493.1875,
        1344.0
      ],
      "min": [
        -74.3837890625,
        -1689.3125,
        -2066.5
      ]
    },
    {
      "bufferView": 2,
      "byteOffset": 0,
      "componentType": 5126,
      "normalized": false,
      "count": 15545,
      "type": "VEC3"
    },
    {
      "bufferView": 3,
      "byteOffset": 0,
      "componentType": 5126,
      "normalized": false,
      "count": 15545,
      "type": "VEC2"
    }
  ],
  "asset": {
    "generator": "pygltflib@v{{ pygltflib_version }}",
    "version": "2.0"
  },
  "bufferViews": [
    {
      "buffer": 0,
      "byteOffset": 0,
      "byteLength": 372708,
      "target": 34963
    },
    {
      "buffer": 0,
      "byteOffset": 372708,
      "byteLength": 186540,
      "target": 34962
    },
    {
      "buffer": 0,
      "byteOffset": 559248,
      "byteLength": 186540,
      "target": 34962
    },
    {
      "buffer": 0,
      "byteOffset": 745788,
      "byteLength": 124360,
      "target": 34962
    }
  ],
  "buffers": [
    {
      "uri": "data:application/octet-stream;base64,",
      "byteLength": 870148
    }
  ],
  "images": [
    {
      "uri": "data:image/png;base64,"
    }
  ],
  "materials": [
    {
      "pbrMetallicRoughness": {
        "baseColorFactor": [
          1.0,
          1.0,
          1.0,
          1.0
        ],
        "metallicFactor": 0.0,
        "roughnessFactor": 1.0,
        "baseColorTexture": {
          "index": 0,
          "texCoord": 0
        }
      },
      "emissiveFactor": [
        0.0,
        0.0,
        0.0
      ],
      "alphaMode": "MASK",
      "doubleSided": true,
      "name": "tRIBS Base Material"
    }
  ],
  "meshes": [
    {
      "primitives": [
        {
          "attributes": {
            "POSITION": 1,
            "NORMAL": 2,
            "TEXCOORD_0": 3
          },
          "indices": 0,
          "mode": 4,
          "material": 0
        }
      ]
    }
  ],
  "nodes": [
    {
      "mesh": 0
    }
  ],
  "samplers": [
    {
      "wrapS": 33071,
      "wrapT": 33071
    }
  ],
  "scene": 0,
  "scenes": [
    {
      "nodes": [
        0
      ]
    }
  ],
  "textures": [
    {
      "sampler": 0,
      "source": 0
    }
  ]
}